<?xml version="1.0" standalone="no"?><!DOCTYPE svg PUBLIC "-//W3C//DTD SVG 1.1//EN" "http://www.w3.org/Graphics/SVG/1.1/DTD/svg11.dtd"><svg t="1684222952409" class="icon" viewBox="0 0 1024 1024" version="1.1" xmlns="http://www.w3.org/2000/svg" p-id="13050" width="16" height="16" xmlns:xlink="http://www.w3.org/1999/xlink"><path d="M843.401806 63.960731h-663.392013c-63.815421 0-116.028597 52.212152-116.028596 116.028596v663.392012c0 63.815421 52.212152 116.028597 116.028596 116.028597h663.392013c63.815421 0 116.028597-52.213175 116.028596-116.028597v-663.392012c0-63.815421-52.213175-116.028597-116.028596-116.028596z m12.429077 503.57205c0 91.258447-74.243935 165.501358-165.501358 165.501358h-356.65905c-91.258447 0-165.501358-74.243935-165.501358-165.501358v-111.065562c0-91.257423 74.243935-165.500335 165.501358-165.500335h356.65905c91.257423 0 165.501358 74.243935 165.501358 165.500335v111.065562z" fill="#1296db" p-id="13051"></path><path d="M437.44805 462.802508c42.906206 38.417985 100.56337 38.417985 143.470599-0.001023l141.498688-126.698611a124.088156 124.088156 0 0 0-32.087812-4.203742h-356.65905c-12.490475 0-24.712845 1.852184-36.361139 5.4225l140.138714 125.480876z" fill="#1296db" p-id="13052"></path><path d="M762.53401 355.12409l-154.311505 138.171919c-29.157064 26.107611-64.097854 39.160905-99.039667 39.160905s-69.883627-13.053294-99.039667-39.159881l-151.758356-135.886877a127.753639 127.753639 0 0 0-12.67467 11.097756c-23.607674 23.608697-36.609803 54.846142-36.609803 87.959307v111.065562c0 33.113165 13.002129 64.351634 36.609803 87.959307 23.607674 23.607674 54.846142 36.609803 87.959307 36.609803h356.659049c33.113165 0 64.351634-13.002129 87.959308-36.609803s36.609803-54.846142 36.609802-87.959307v-111.065562c0-33.113165-13.002129-64.351634-36.609802-87.959307a127.254266 127.254266 0 0 0-15.753799-13.383822z" fill="#1296db" p-id="13053"></path></svg>